<?xml version="1.0" encoding="UTF-8" standalone="no"?>
<!-- Created with Inkscape (http://www.inkscape.org/) -->

<svg
   xmlns:dc="http://purl.org/dc/elements/1.1/"
   xmlns:cc="http://creativecommons.org/ns#"
   xmlns:rdf="http://www.w3.org/1999/02/22-rdf-syntax-ns#"
   xmlns:svg="http://www.w3.org/2000/svg"
   xmlns="http://www.w3.org/2000/svg"
   xmlns:sodipodi="http://sodipodi.sourceforge.net/DTD/sodipodi-0.dtd"
   xmlns:inkscape="http://www.inkscape.org/namespaces/inkscape"
   version="1.1"
   id="svg2"
   xml:space="preserve"
   width="64.15242"
   height="33"
   viewBox="0 0 64.152419 33"
   sodipodi:docname="mhh_logo.svg"
   inkscape:version="0.92.4 (5da689c313, 2019-01-14)"><metadata
     id="metadata8"><rdf:RDF><cc:Work
         rdf:about=""><dc:format>image/svg+xml</dc:format><dc:type
           rdf:resource="http://purl.org/dc/dcmitype/StillImage" /><dc:title></dc:title></cc:Work></rdf:RDF></metadata><defs
     id="defs6" /><sodipodi:namedview
     pagecolor="#ffffff"
     bordercolor="#666666"
     borderopacity="1"
     objecttolerance="10"
     gridtolerance="10"
     guidetolerance="10"
     inkscape:pageopacity="0"
     inkscape:pageshadow="2"
     inkscape:window-width="1920"
     inkscape:window-height="1053"
     id="namedview4"
     showgrid="false"
     fit-margin-top="0"
     fit-margin-left="0"
     fit-margin-right="0"
     fit-margin-bottom="0"
     inkscape:zoom="2.9462211"
     inkscape:cx="25.965464"
     inkscape:cy="29.635662"
     inkscape:window-x="1920"
     inkscape:window-y="27"
     inkscape:window-maximized="1"
     inkscape:current-layer="g10" /><g
     id="g10"
     inkscape:groupmode="layer"
     inkscape:label="ink_ext_XXXXXX"
     transform="matrix(1.3333333,0,0,-1.3333333,0,33)"><g
       id="g12"
       transform="scale(0.05324241)"><path
         d="M 0,140.441 V 464.855 H 53.6523 L 138.828,342.27 c 11.317,-16.727 19.68,-29.047 27.07,-41.84 h 0.989 c 6.89,12.304 15.258,26.582 26.582,43.808 l 77.781,120.617 h 54.16 V 0 h -59.57 v 323.555 c 0,13.3 0,30.039 0.98,42.832 h -0.98 c -4.434,-9.344 -16.246,-27.567 -22.156,-36.426 L 179.688,230.52 H 152.605 L 81.7188,332.426 c -6.9024,9.844 -15.75,21.168 -22.1485,33.465 h -0.9961 c 0.5,-12.786 0.5,-29.532 0.5,-40.86 V 140.441 H 0 v 0"
         style="fill:#908270;fill-opacity:1;fill-rule:evenodd;stroke:none"
         id="path14"
         inkscape:connector-curvature="0" /><path
         d="m 347.449,190.539 h 136.367 v 133.899 h 59.582 V 0 H 483.816 V 140.344 H 347.449 v 50.195 0"
         style="fill:#908270;fill-opacity:1;fill-rule:nonzero;stroke:none"
         id="path16"
         inkscape:connector-curvature="0" /><path
         d="m 627.488,139.18 v 324.433 h 59.075 V 139.18 Z m 80.246,190.527 h 136.368 v 133.906 h 59.582 V 139.18 H 844.102 V 279.504 H 707.734 v 50.203 0"
         style="fill:#908270;fill-opacity:1;fill-rule:evenodd;stroke:none"
         id="path18"
         inkscape:connector-curvature="0" /></g></g></svg>