<?xml version="1.0" encoding="UTF-8" standalone="no"?>
<!-- Created with Inkscape (http://www.inkscape.org/) -->

<svg
   xmlns:dc="http://purl.org/dc/elements/1.1/"
   xmlns:cc="http://creativecommons.org/ns#"
   xmlns:rdf="http://www.w3.org/1999/02/22-rdf-syntax-ns#"
   xmlns:svg="http://www.w3.org/2000/svg"
   xmlns="http://www.w3.org/2000/svg"
   xmlns:sodipodi="http://sodipodi.sourceforge.net/DTD/sodipodi-0.dtd"
   xmlns:inkscape="http://www.inkscape.org/namespaces/inkscape"
   width="10.491648mm"
   height="7.9375005mm"
   viewBox="0 0 10.491648 7.9375005"
   version="1.1"
   id="svg2345"
   inkscape:version="0.92.4 (5da689c313, 2019-01-14)"
   sodipodi:docname="resist_logo.svg">
  <defs
     id="defs2339">
    <clipPath
       clipPathUnits="userSpaceOnUse"
       id="clipPath152">
      <path
         d="m 1045.512,20.622 h 124.725 v 87.307 h -124.725 z"
         id="path150"
         inkscape:connector-curvature="0" />
    </clipPath>
  </defs>
  <sodipodi:namedview
     id="base"
     pagecolor="#ffffff"
     bordercolor="#666666"
     borderopacity="1.0"
     inkscape:pageopacity="0.0"
     inkscape:pageshadow="2"
     inkscape:zoom="5.6"
     inkscape:cx="48.577778"
     inkscape:cy="-17.434843"
     inkscape:document-units="mm"
     inkscape:current-layer="layer1"
     showgrid="false"
     fit-margin-top="0"
     fit-margin-left="0"
     fit-margin-right="0"
     fit-margin-bottom="0"
     inkscape:window-width="1920"
     inkscape:window-height="1053"
     inkscape:window-x="1920"
     inkscape:window-y="27"
     inkscape:window-maximized="1" />
  <metadata
     id="metadata2342">
    <rdf:RDF>
      <cc:Work
         rdf:about="">
        <dc:format>image/svg+xml</dc:format>
        <dc:type
           rdf:resource="http://purl.org/dc/dcmitype/StillImage" />
        <dc:title></dc:title>
      </cc:Work>
    </rdf:RDF>
  </metadata>
  <g
     inkscape:label="Layer 1"
     inkscape:groupmode="layer"
     id="layer1"
     transform="translate(209.07194,51.244458)">
    <g
       id="g154"
       transform="matrix(0.10387359,0,0,-0.10387359,-203.04364,-43.306958)">
      <path
         d="M 0,0 C 21.101,0 38.207,17.106 38.207,38.207 38.207,59.308 21.101,76.415 0,76.415 -21.102,76.415 -38.207,59.308 -38.207,38.207 -38.207,17.106 -21.102,0 0,0"
         style="fill:#d7ebfb;fill-opacity:1;fill-rule:nonzero;stroke:none"
         id="path156"
         inkscape:connector-curvature="0" />
    </g>
    <g
       id="g158"
       transform="matrix(0.10387359,0,0,-0.10387359,-203.64425,-44.131371)">
      <path
         d="M 0,0 C 13.525,0 24.489,10.963 24.489,24.489 24.489,38.013 13.525,48.977 0,48.977 -13.525,48.977 -24.489,38.013 -24.489,24.489 -24.489,10.963 -13.525,0 0,0"
         style="fill:#b3d6f2;fill-opacity:1;fill-rule:nonzero;stroke:none"
         id="path160"
         inkscape:connector-curvature="0" />
    </g>
    <g
       id="g162"
       transform="matrix(0.10387359,0,0,-0.10387359,-198.58029,-44.02434)">
      <path
         d="M 0,0 H -0.785 L -1.401,-1.584 H -1.417 L -2.026,0 h -0.79 l 1.039,-2.336 -0.001,-1.36 h 0.721 v 1.315 z M -4.453,-0.576 H -3.62 V 0 h -2.382 v -0.576 h 0.828 v -3.12 h 0.721 z m -3.225,-3.12 h 0.719 V 0 h -0.719 z m -3.033,0 h 2.074 V -3.12 H -9.988 V 0 h -0.723 z m -1.847,0 h 0.719 V 0 h -0.719 z m -6.128,25.306 h 5.391 v 2.944 H -27.871 V 21.61 h 5.365 V 5.503 h 3.82 z m -9.906,-22.818 0.007,0.015 c -0.007,0.412 -0.111,0.722 -0.311,0.932 -0.2,0.21 -0.497,0.315 -0.89,0.315 -0.37,0 -0.666,-0.118 -0.887,-0.355 -0.221,-0.236 -0.332,-0.568 -0.332,-0.996 v -1.105 c 0,-0.429 0.115,-0.762 0.344,-0.996 0.228,-0.234 0.533,-0.352 0.916,-0.352 0.382,0 0.672,0.104 0.868,0.31 0.196,0.207 0.293,0.513 0.29,0.919 l -0.008,0.016 h -0.696 c 0.009,-0.245 -0.021,-0.416 -0.09,-0.517 -0.069,-0.101 -0.19,-0.151 -0.364,-0.151 -0.178,0 -0.313,0.063 -0.405,0.19 -0.092,0.127 -0.138,0.321 -0.138,0.582 v 1.11 c 0,0.258 0.043,0.451 0.129,0.577 0.086,0.127 0.211,0.191 0.373,0.191 0.19,0 0.323,-0.053 0.399,-0.16 0.076,-0.107 0.109,-0.282 0.099,-0.525 z m -11.283,20.711 c 0,0.707 0.278,1.287 0.837,1.741 0.558,0.453 1.348,0.68 2.368,0.68 1.064,0 1.891,-0.272 2.48,-0.818 0.588,-0.545 0.883,-1.258 0.883,-2.139 h 3.703 l 0.026,0.078 c 0.044,1.632 -0.593,3.004 -1.91,4.116 -1.318,1.112 -3.023,1.668 -5.116,1.668 -2.068,0 -3.766,-0.495 -5.097,-1.485 -1.33,-0.991 -1.995,-2.266 -1.995,-3.827 0,-1.562 0.58,-2.792 1.74,-3.69 1.16,-0.899 2.874,-1.675 5.143,-2.33 1.299,-0.392 2.208,-0.81 2.727,-1.255 0.519,-0.445 0.779,-1.034 0.779,-1.767 0,-0.715 -0.275,-1.287 -0.824,-1.714 -0.55,-0.427 -1.344,-0.641 -2.382,-0.641 -1.239,0 -2.204,0.263 -2.898,0.791 -0.693,0.528 -1.04,1.359 -1.04,2.493 h -3.717 l -0.025,-0.078 c -0.044,-1.928 0.706,-3.427 2.25,-4.495 1.544,-1.069 3.354,-1.603 5.43,-1.603 2.111,0 3.81,0.471 5.096,1.413 1.287,0.942 1.931,2.229 1.931,3.86 0,1.562 -0.541,2.822 -1.623,3.782 -1.081,0.959 -2.674,1.731 -4.776,2.316 -1.465,0.462 -2.497,0.9 -3.094,1.314 -0.598,0.415 -0.896,0.945 -0.896,1.59 M -44.777,0 V -2.356 L -44.792,-2.361 -45.922,0 h -0.724 v -3.696 h 0.724 v 2.358 l 0.015,0.005 1.13,-2.363 h 0.718 V 0 Z m -1.419,25.263 c 0.218,1.551 -0.863,2.984 -2.412,3.202 -1.551,0.218 -2.984,-0.863 -3.202,-2.413 -0.218,-1.55 0.863,-2.984 2.413,-3.201 1.549,-0.218 2.983,0.862 3.201,2.412 M -51.311,0 h -0.719 v -3.696 h 0.719 z m -2.505,-0.576 h 0.832 V 0 h -2.381 v -0.576 h 0.828 v -3.12 h 0.721 z m -10.245,20.079 c 0,0.707 0.279,1.287 0.837,1.741 0.559,0.453 1.348,0.68 2.369,0.68 1.064,0 1.891,-0.272 2.479,-0.818 0.589,-0.545 0.883,-1.258 0.883,-2.139 h 3.703 l 0.026,0.078 c 0.044,1.632 -0.593,3.003 -1.91,4.116 -1.317,1.112 -3.023,1.668 -5.116,1.668 -2.067,0 -3.766,-0.495 -5.096,-1.485 -1.331,-0.991 -1.996,-2.266 -1.996,-3.827 0,-1.562 0.58,-2.792 1.741,-3.69 1.16,-0.899 2.873,-1.675 5.142,-2.33 1.3,-0.392 2.209,-0.81 2.728,-1.255 0.519,-0.445 0.778,-1.034 0.778,-1.767 0,-0.715 -0.274,-1.287 -0.824,-1.714 -0.55,-0.427 -1.343,-0.641 -2.381,-0.641 -1.239,0 -2.205,0.264 -2.898,0.791 -0.694,0.528 -1.04,1.359 -1.04,2.493 h -3.717 l -0.026,-0.078 c -0.043,-1.928 0.707,-3.427 2.25,-4.495 1.545,-1.069 3.355,-1.603 5.431,-1.603 2.111,0 3.809,0.471 5.096,1.413 1.287,0.942 1.93,2.229 1.93,3.86 0,1.562 -0.541,2.822 -1.622,3.782 -1.082,0.959 -2.674,1.731 -4.776,2.316 -1.466,0.462 -2.497,0.9 -3.095,1.314 -0.598,0.415 -0.896,0.945 -0.896,1.59 M -67.775,0 h -0.724 v -3.696 h 0.724 v 2.358 l 0.015,0.005 1.129,-2.363 h 0.719 V 0 h -0.719 v -2.356 l -0.015,-0.005 z m -2.571,-3.696 h 0.718 V 0 h -0.718 z m -12.808,9.199 h 13.045 v 2.944 h -9.224 v 5.43 h 7.89 v 2.944 h -7.89 v 4.789 h 9.198 v 2.944 H -83.154 Z M -82.907,0 l -0.617,-2.76 -0.028,-0.134 h -0.015 L -83.595,-2.752 -84.207,0 h -0.759 l 1.034,-3.696 h 0.751 L -82.147,0 Z m -4.524,-3.696 h 2.074 v 0.576 h -1.35 V 0 h -0.724 z m -2.032,9.199 h 3.939 v 0.275 c -0.349,0.279 -0.595,0.708 -0.739,1.288 -0.144,0.58 -0.216,1.136 -0.216,1.669 v 1.4 c 0,1.143 -0.247,2.102 -0.739,2.878 -0.494,0.777 -1.303,1.331 -2.428,1.662 0.995,0.436 1.749,1.007 2.264,1.714 0.515,0.707 0.772,1.553 0.772,2.538 0,1.771 -0.613,3.152 -1.838,4.142 -1.226,0.99 -2.925,1.485 -5.097,1.485 h -7.184 V 5.503 h 3.821 v 7.615 h 3.638 c 0.942,0 1.672,-0.263 2.192,-0.791 0.519,-0.528 0.778,-1.268 0.778,-2.218 V 8.761 c 0,-0.584 0.053,-1.204 0.157,-1.858 0.105,-0.654 0.332,-1.121 0.68,-1.4 m -0.955,13.255 c 0,-0.891 -0.264,-1.562 -0.792,-2.016 -0.527,-0.453 -1.327,-0.68 -2.4,-0.68 h -3.298 v 5.548 h 3.363 c 1.029,0 1.808,-0.257 2.335,-0.772 0.528,-0.514 0.792,-1.208 0.792,-2.08 m -9.38,-18.761 h -1.206 v -3.693 h 0.721 v 1.47 h 0.523 c 0.14,0 0.248,-0.051 0.323,-0.153 0.076,-0.101 0.114,-0.244 0.114,-0.429 v -0.251 c 0,-0.127 0.007,-0.251 0.022,-0.373 0.015,-0.122 0.053,-0.21 0.112,-0.264 h 0.746 v 0.053 c -0.059,0.053 -0.1,0.137 -0.124,0.253 -0.024,0.116 -0.036,0.224 -0.036,0.326 v 0.261 c 0,0.224 -0.041,0.41 -0.125,0.559 -0.084,0.149 -0.221,0.256 -0.41,0.32 0.166,0.083 0.292,0.194 0.378,0.334 0.086,0.139 0.129,0.305 0.129,0.499 0,0.342 -0.103,0.609 -0.311,0.801 -0.207,0.191 -0.492,0.287 -0.856,0.287 m -0.485,-0.576 h 0.485 c 0.145,0 0.256,-0.05 0.332,-0.149 0.076,-0.1 0.115,-0.235 0.115,-0.404 0,-0.166 -0.039,-0.294 -0.115,-0.383 -0.076,-0.09 -0.188,-0.135 -0.335,-0.135 h -0.482 z M -95.31,0 h -2.179 v -3.696 h 2.183 v 0.576 h -1.459 v 1.046 h 1.241 v 0.577 h -1.241 v 0.921 h 1.455 z m 0.875,-2.541 -0.005,-0.015 c -0.008,-0.385 0.117,-0.679 0.375,-0.885 0.258,-0.206 0.563,-0.309 0.915,-0.309 0.353,0 0.637,0.091 0.85,0.272 0.214,0.181 0.32,0.432 0.32,0.752 0,0.31 -0.088,0.555 -0.265,0.737 -0.177,0.182 -0.44,0.332 -0.791,0.451 -0.221,0.096 -0.377,0.184 -0.467,0.262 -0.09,0.079 -0.134,0.18 -0.134,0.301 0,0.132 0.04,0.242 0.12,0.329 0.081,0.087 0.193,0.131 0.337,0.131 0.153,0 0.273,-0.053 0.357,-0.158 0.085,-0.104 0.127,-0.241 0.127,-0.411 h 0.701 l 0.005,0.015 c 0.007,0.324 -0.1,0.592 -0.32,0.804 -0.22,0.212 -0.506,0.319 -0.858,0.319 -0.347,0 -0.632,-0.096 -0.855,-0.286 -0.224,-0.19 -0.336,-0.437 -0.336,-0.74 0,-0.306 0.096,-0.545 0.289,-0.715 0.192,-0.17 0.48,-0.322 0.864,-0.455 0.188,-0.082 0.319,-0.164 0.393,-0.248 0.075,-0.084 0.112,-0.198 0.112,-0.342 0,-0.138 -0.036,-0.249 -0.11,-0.33 -0.074,-0.08 -0.187,-0.121 -0.339,-0.121 -0.195,0 -0.34,0.05 -0.437,0.149 -0.096,0.1 -0.145,0.264 -0.145,0.493 z m 3.744,2.225 c -0.234,-0.246 -0.351,-0.585 -0.351,-1.017 v -1.036 c 0,-0.433 0.117,-0.771 0.351,-1.015 0.233,-0.244 0.546,-0.366 0.936,-0.366 0.391,0 0.705,0.122 0.94,0.366 0.235,0.244 0.353,0.582 0.353,1.015 v 1.036 c 0,0.432 -0.118,0.771 -0.355,1.017 -0.238,0.246 -0.55,0.37 -0.94,0.37 -0.389,0 -0.701,-0.124 -0.934,-0.37 m 0.365,-1.008 c 0,0.266 0.048,0.466 0.143,0.6 0.094,0.134 0.236,0.201 0.426,0.201 0.188,0 0.331,-0.067 0.429,-0.202 0.098,-0.135 0.148,-0.335 0.148,-0.599 v -1.045 c 0,-0.268 -0.05,-0.469 -0.148,-0.603 -0.098,-0.134 -0.24,-0.201 -0.427,-0.201 -0.187,0 -0.329,0.067 -0.426,0.201 -0.096,0.134 -0.145,0.335 -0.145,0.603 z M -80.498,0 h -0.719 v -3.696 h 0.719 z m 1.852,0 h -0.723 v -3.696 h 0.723 v 2.358 l 0.016,0.005 1.129,-2.363 h 0.719 V 0 h -0.719 v -2.356 l -0.015,-0.005 z m 3.258,-0.297 c -0.231,-0.234 -0.347,-0.563 -0.347,-0.988 v -1.127 c 0,-0.428 0.12,-0.758 0.359,-0.99 0.24,-0.232 0.558,-0.348 0.954,-0.348 0.306,0 0.559,0.061 0.759,0.182 0.2,0.121 0.349,0.261 0.449,0.42 v 1.377 h -1.208 V -2.28 h 0.487 v -0.662 c -0.044,-0.076 -0.1,-0.134 -0.169,-0.173 -0.068,-0.039 -0.174,-0.058 -0.318,-0.058 -0.193,0 -0.34,0.062 -0.441,0.186 -0.101,0.125 -0.151,0.317 -0.151,0.576 v 1.134 c 0,0.254 0.05,0.443 0.15,0.567 0.1,0.125 0.238,0.187 0.414,0.187 0.179,0 0.313,-0.047 0.4,-0.144 0.087,-0.096 0.133,-0.247 0.138,-0.456 h 0.678 l 0.005,0.015 c -0.009,0.374 -0.115,0.661 -0.32,0.861 -0.205,0.2 -0.512,0.301 -0.921,0.301 -0.381,0 -0.687,-0.117 -0.918,-0.351 M -62.603,0 h -2.199 v -3.696 h 0.724 v 1.536 h 1.254 v 0.576 h -1.254 v 1.008 h 1.475 z m 3.13,0 h -2.178 v -3.696 h 2.183 v 0.576 h -1.46 v 1.046 h 1.242 v 0.577 h -1.242 v 0.921 h 1.455 z m 1.189,-0.301 c -0.221,-0.236 -0.331,-0.568 -0.331,-0.996 v -1.105 c 0,-0.429 0.114,-0.762 0.343,-0.996 0.228,-0.234 0.534,-0.352 0.916,-0.352 0.383,0 0.672,0.104 0.868,0.31 0.196,0.207 0.293,0.513 0.29,0.919 l -0.008,0.016 h -0.695 c 0.008,-0.245 -0.022,-0.416 -0.09,-0.517 -0.069,-0.101 -0.191,-0.151 -0.365,-0.151 -0.178,0 -0.313,0.063 -0.405,0.19 -0.092,0.127 -0.138,0.321 -0.138,0.582 v 1.11 c 0,0.258 0.043,0.451 0.129,0.577 0.086,0.127 0.211,0.191 0.374,0.191 0.189,0 0.322,-0.053 0.398,-0.16 0.076,-0.107 0.109,-0.282 0.099,-0.525 h 0.696 l 0.007,0.015 c -0.007,0.412 -0.11,0.722 -0.311,0.932 -0.2,0.21 -0.497,0.315 -0.889,0.315 -0.371,0 -0.667,-0.118 -0.888,-0.355 m 9.319,21.246 c -0.64,0 -1.249,0.133 -1.802,0.37 V 5.503 h 3.821 V 21.42 c -0.61,-0.301 -1.294,-0.475 -2.019,-0.475 m -0.941,-21.261 c -0.233,-0.246 -0.35,-0.585 -0.35,-1.017 v -1.036 c 0,-0.433 0.117,-0.771 0.35,-1.015 0.234,-0.244 0.546,-0.366 0.937,-0.366 0.391,0 0.704,0.122 0.939,0.366 0.236,0.244 0.353,0.582 0.353,1.015 v 1.036 c 0,0.432 -0.118,0.771 -0.355,1.017 -0.237,0.246 -0.55,0.37 -0.94,0.37 -0.389,0 -0.7,-0.124 -0.934,-0.37 m 0.365,-1.008 c 0,0.266 0.048,0.466 0.143,0.6 0.095,0.134 0.237,0.201 0.426,0.201 0.188,0 0.331,-0.067 0.429,-0.202 0.099,-0.135 0.148,-0.335 0.148,-0.599 v -1.045 c 0,-0.268 -0.049,-0.469 -0.148,-0.603 -0.098,-0.134 -0.24,-0.201 -0.426,-0.201 -0.188,0 -0.33,0.067 -0.426,0.201 -0.097,0.134 -0.146,0.335 -0.146,0.603 z m 8.239,-1.217 -0.005,-0.015 c -0.01,-0.385 0.115,-0.679 0.374,-0.885 0.258,-0.206 0.563,-0.309 0.915,-0.309 0.354,0 0.638,0.091 0.851,0.272 0.213,0.181 0.319,0.432 0.319,0.752 0,0.31 -0.088,0.555 -0.265,0.737 -0.177,0.182 -0.44,0.332 -0.791,0.451 -0.221,0.096 -0.377,0.184 -0.466,0.262 -0.09,0.079 -0.135,0.18 -0.135,0.301 0,0.132 0.04,0.242 0.12,0.329 0.081,0.087 0.193,0.131 0.337,0.131 0.154,0 0.273,-0.053 0.358,-0.158 0.084,-0.104 0.127,-0.241 0.127,-0.411 h 0.7 l 0.005,0.015 c 0.007,0.324 -0.1,0.592 -0.319,0.804 -0.221,0.212 -0.507,0.319 -0.859,0.319 -0.347,0 -0.632,-0.096 -0.855,-0.286 -0.224,-0.19 -0.336,-0.437 -0.336,-0.74 0,-0.306 0.097,-0.545 0.289,-0.715 0.192,-0.17 0.48,-0.322 0.864,-0.455 0.188,-0.082 0.319,-0.164 0.393,-0.248 0.075,-0.084 0.113,-0.198 0.113,-0.342 0,-0.138 -0.037,-0.249 -0.111,-0.33 -0.073,-0.08 -0.187,-0.121 -0.339,-0.121 -0.195,0 -0.34,0.05 -0.436,0.149 -0.097,0.1 -0.145,0.264 -0.145,0.493 z M -37.161,0 h -0.721 v -2.515 c 0,-0.393 0.115,-0.697 0.346,-0.912 0.232,-0.215 0.534,-0.323 0.908,-0.323 0.374,0 0.677,0.107 0.908,0.322 0.231,0.214 0.346,0.518 0.346,0.913 V 0 h -0.718 v -2.515 c 0,-0.236 -0.046,-0.404 -0.137,-0.506 -0.092,-0.102 -0.225,-0.152 -0.399,-0.152 -0.169,0 -0.3,0.053 -0.393,0.16 -0.094,0.106 -0.14,0.272 -0.14,0.498 z m 2.764,-2.541 -0.006,-0.015 c -0.008,-0.385 0.117,-0.679 0.375,-0.885 0.258,-0.206 0.563,-0.309 0.915,-0.309 0.354,0 0.637,0.091 0.85,0.272 0.214,0.181 0.32,0.432 0.32,0.752 0,0.31 -0.088,0.555 -0.265,0.737 -0.177,0.182 -0.44,0.332 -0.79,0.451 -0.222,0.096 -0.378,0.184 -0.468,0.262 -0.089,0.079 -0.134,0.18 -0.134,0.301 0,0.132 0.04,0.242 0.12,0.329 0.081,0.087 0.193,0.131 0.337,0.131 0.154,0 0.273,-0.053 0.357,-0.158 0.085,-0.104 0.127,-0.241 0.127,-0.411 h 0.701 l 0.005,0.015 c 0.007,0.324 -0.099,0.592 -0.32,0.804 -0.22,0.212 -0.505,0.319 -0.857,0.319 -0.347,0 -0.633,-0.096 -0.857,-0.286 -0.223,-0.19 -0.334,-0.437 -0.334,-0.74 0,-0.306 0.096,-0.545 0.288,-0.715 0.192,-0.17 0.48,-0.322 0.864,-0.455 0.188,-0.082 0.319,-0.164 0.394,-0.248 0.074,-0.084 0.112,-0.198 0.112,-0.342 0,-0.138 -0.037,-0.249 -0.111,-0.33 -0.073,-0.08 -0.187,-0.121 -0.339,-0.121 -0.194,0 -0.34,0.05 -0.437,0.149 -0.096,0.1 -0.144,0.264 -0.144,0.493 z M -25.428,0 h -2.178 v -3.696 h 2.183 v 0.576 h -1.46 v 1.046 h 1.242 v 0.577 h -1.242 v 0.921 h 1.455 z m 2.239,0 h -1.285 v -3.696 h 0.724 v 1.327 h 0.561 c 0.367,0 0.658,0.109 0.872,0.326 0.214,0.217 0.321,0.504 0.321,0.859 0,0.353 -0.107,0.639 -0.32,0.857 C -22.529,-0.109 -22.82,0 -23.189,0 m -0.561,-0.576 h 0.561 c 0.156,0 0.273,-0.058 0.354,-0.175 0.08,-0.115 0.121,-0.261 0.121,-0.438 0,-0.175 -0.041,-0.319 -0.123,-0.433 -0.08,-0.113 -0.198,-0.17 -0.352,-0.17 H -23.75 Z M -18.783,0 h -2.381 v -0.576 h 0.828 v -3.12 h 0.721 v 3.12 h 0.832 z m 1.673,0 h -0.719 v -3.696 h 0.719 z m 2.217,0 h -1.089 v -3.696 h 1.234 c 0.378,0 0.667,0.091 0.869,0.274 0.202,0.183 0.304,0.451 0.304,0.804 0,0.205 -0.047,0.384 -0.14,0.537 -0.093,0.152 -0.237,0.251 -0.431,0.296 0.155,0.068 0.272,0.17 0.35,0.306 0.078,0.137 0.117,0.293 0.117,0.469 0,0.335 -0.107,0.587 -0.321,0.757 C -14.215,-0.084 -14.512,0 -14.893,0 m -0.365,-2.066 h 0.558 c 0.143,0 0.246,-0.048 0.31,-0.142 0.064,-0.095 0.096,-0.23 0.096,-0.406 0,-0.168 -0.037,-0.294 -0.112,-0.379 -0.076,-0.085 -0.189,-0.127 -0.342,-0.127 h -0.51 z m 0,1.49 h 0.365 c 0.164,0 0.287,-0.04 0.368,-0.121 0.082,-0.08 0.122,-0.208 0.122,-0.381 0,-0.154 -0.039,-0.272 -0.118,-0.355 -0.078,-0.082 -0.191,-0.125 -0.339,-0.128 h -0.398 z"
         style="fill:#0069b4;fill-opacity:1;fill-rule:nonzero;stroke:none"
         id="path164"
         inkscape:connector-curvature="0" />
    </g>
  </g>
</svg>
