<?xml version="1.0" encoding="UTF-8" standalone="no"?>
<svg
   xmlns:dc="http://purl.org/dc/elements/1.1/"
   xmlns:cc="http://creativecommons.org/ns#"
   xmlns:rdf="http://www.w3.org/1999/02/22-rdf-syntax-ns#"
   xmlns:svg="http://www.w3.org/2000/svg"
   xmlns="http://www.w3.org/2000/svg"
   xmlns:sodipodi="http://sodipodi.sourceforge.net/DTD/sodipodi-0.dtd"
   xmlns:inkscape="http://www.inkscape.org/namespaces/inkscape"
   viewBox="0 0 114.28908 33"
   height="33"
   width="114.28908"
   xml:space="preserve"
   id="svg2"
   version="1.1"
   sodipodi:docname="twincore_logo.svg"
   inkscape:version="0.92.4 (5da689c313, 2019-01-14)"><sodipodi:namedview
     pagecolor="#ffffff"
     bordercolor="#666666"
     borderopacity="1"
     objecttolerance="10"
     gridtolerance="10"
     guidetolerance="10"
     inkscape:pageopacity="0"
     inkscape:pageshadow="2"
     inkscape:window-width="1920"
     inkscape:window-height="1053"
     id="namedview18"
     showgrid="false"
     fit-margin-top="0"
     fit-margin-left="0"
     fit-margin-right="0"
     fit-margin-bottom="0"
     inkscape:zoom="1.3432836"
     inkscape:cx="46.155557"
     inkscape:cy="35.466666"
     inkscape:window-x="1920"
     inkscape:window-y="27"
     inkscape:window-maximized="1"
     inkscape:current-layer="svg2" /><metadata
     id="metadata8"><rdf:RDF><cc:Work
         rdf:about=""><dc:format>image/svg+xml</dc:format><dc:type
           rdf:resource="http://purl.org/dc/dcmitype/StillImage" /><dc:title></dc:title></cc:Work></rdf:RDF></metadata><defs
     id="defs6" /><g
     transform="matrix(0.62028676,0,0,-0.62028676,0,33)"
     id="g10"><path
       d="m 39.6887,34.5207 c -2.2305,0.9871 -4.6848,1.5578 -7.2805,1.5578 -9.9629,0 -18.0398,-8.0765 -18.0398,-18.0394 0,-0.3192 0.0781,-0.6172 0.0937,-0.9325 l 3.2586,2.25 c -0.0098,0.2032 -0.0605,0.3965 -0.0605,0.6036 0,7.0761 5.7375,12.8132 12.8136,12.8132 1.8231,0 3.5508,-0.3929 5.12,-1.0789 l 4.0949,2.8262 v 0"
       style="fill:#ce0e42;fill-opacity:1;fill-rule:nonzero;stroke:none;stroke-width:0.1"
       id="path14"
       inkscape:connector-curvature="0" /><path
       d="M 17.5168,7.87109 C 20.7668,3.12227 26.2188,0 32.4082,0 c 9.9629,0 18.0391,8.07617 18.0391,18.0391 0,3.841 -1.2196,7.3839 -3.2657,10.3097 l -4.907,-3.3886 c 0.6512,-1.5372 1.0137,-3.2266 1.0137,-5 0,-7.0782 -5.7375,-12.8145 -12.8145,-12.8145 -3.4336,0 -6.5371,1.36914 -8.8379,3.5684 L 17.5168,7.87109 v 0"
       style="fill:#0e467b;fill-opacity:1;fill-rule:nonzero;stroke:none;stroke-width:0.1"
       id="path16"
       inkscape:connector-curvature="0" /><path
       d="m 10.759,8.83711 c 2.2305,-0.98633 4.6855,-1.55781 7.2801,-1.55781 9.9629,0 18.0402,8.0762 18.0402,18.0391 0,0.3195 -0.0781,0.6171 -0.0938,0.9328 L 32.7266,24.002 c 0.0089,-0.204 0.0617,-0.3973 0.0617,-0.6036 0,-7.0769 -5.7375,-12.8132 -12.8145,-12.8132 -1.8242,0 -3.5508,0.3925 -5.1211,1.0781 L 10.759,8.83711 v 0"
       style="fill:#0e467b;fill-opacity:1;fill-rule:nonzero;stroke:none;stroke-width:0.1"
       id="path18"
       inkscape:connector-curvature="0" /><path
       d="m 32.9297,35.4867 c -3.2488,4.7488 -8.702,7.8711 -14.8906,7.8711 C 8.07734,43.3578 0,35.2813 0,25.3184 0,21.4785 1.21992,17.9348 3.26484,15.009 l 4.90899,3.3887 c -0.65117,1.5371 -1.01367,3.2265 -1.01367,5.0007 0,7.0774 5.73754,12.8141 12.81364,12.8141 3.4344,0 6.536,-1.3691 8.8367,-3.5687 l 4.1192,2.8429 v 0"
       style="fill:#ce0e42;fill-opacity:1;fill-rule:nonzero;stroke:none;stroke-width:0.1"
       id="path20"
       inkscape:connector-curvature="0" /><path
       d="m 79.9902,52.966 h -3.0828 l -1.3058,-7.3008 c -0.1289,-0.7062 -0.2996,-1.841 -0.3633,-2.4617 -0.1074,0.6207 -0.3438,1.734 -0.5145,2.4617 l -1.7765,7.3008 h -2.6121 l -1.7559,-7.3008 c -0.1711,-0.7277 -0.4063,-1.841 -0.5137,-2.4617 -0.0644,0.6207 -0.2355,1.734 -0.3633,2.4617 l -1.3066,7.3008 h -3.1262 l 3.1262,-14.9863 h 2.8047 l 1.8836,7.7074 c 0.214,0.8774 0.4277,2.0121 0.4933,2.5688 0.0848,-0.5567 0.2989,-1.67 0.5125,-2.5688 l 1.8418,-7.7074 h 2.9336 l 3.125,14.9863 v 0"
       style="fill:#0e467b;fill-opacity:1;fill-rule:nonzero;stroke:none;stroke-width:0.1"
       id="path22"
       inkscape:connector-curvature="0" /><path
       d="M 57.7414,50.0117 V 52.966 H 46.1367 v -2.9543 h 4.3039 v -12.032 h 2.9969 v 12.032 h 4.3039 v 0"
       style="fill:#0e467b;fill-opacity:1;fill-rule:nonzero;stroke:none;stroke-width:0.1"
       id="path24"
       inkscape:connector-curvature="0" /><path
       d="M 89.0656,37.9797 V 52.966 h -2.998 V 37.9797 h 2.998 v 0"
       style="fill:#0e467b;fill-opacity:1;fill-rule:nonzero;stroke:none;stroke-width:0.1"
       id="path26"
       inkscape:connector-curvature="0" /><path
       d="M 109.55,37.9797 V 52.966 h -2.954 v -6.3371 c 0,-0.8348 0.043,-2.7191 0.043,-3.2754 -0.193,0.3852 -0.685,1.1348 -1.049,1.6914 l -5.31,7.9211 H 97.4121 V 37.9797 h 2.9539 v 6.5941 c 0,0.8344 -0.043,2.7188 -0.043,3.2754 0.193,-0.3851 0.685,-1.1344 1.049,-1.6914 l 5.502,-8.1781 h 2.676 v 0"
       style="fill:#0e467b;fill-opacity:1;fill-rule:nonzero;stroke:none;stroke-width:0.1"
       id="path28"
       inkscape:connector-curvature="0" /><path
       d="m 148.525,45.4727 c 0,4.5601 -2.418,7.7285 -6.509,7.7285 -4.089,0 -6.508,-3.1684 -6.508,-7.7285 0,-4.5602 2.419,-7.7286 6.508,-7.7286 4.091,0 6.509,3.1684 6.509,7.7286 z m -3.082,0 c 0,-2.6758 -1.007,-4.7524 -3.427,-4.7524 -2.419,0 -3.425,2.0766 -3.425,4.7524 0,2.6761 1.006,4.7531 3.425,4.7531 2.42,0 3.427,-2.077 3.427,-4.7531 v 0"
       style="fill:#0e467b;fill-opacity:1;fill-rule:nonzero;stroke:none;stroke-width:0.1"
       id="path30"
       inkscape:connector-curvature="0" /><path
       d="m 166.104,37.9797 -2.868,5.823 c 1.905,0.7496 2.868,2.1625 2.868,4.4102 0,3.1906 -2.334,4.7531 -5.159,4.7531 h -6.98 V 37.9797 h 2.997 v 5.3953 h 3.02 l 2.675,-5.3953 z m -3.083,10.1691 c 0,-1.3058 -0.748,-1.948 -2.141,-1.948 h -3.918 v 3.8535 h 3.918 c 1.327,0 2.141,-0.5566 2.141,-1.9055 v 0"
       style="fill:#0e467b;fill-opacity:1;fill-rule:nonzero;stroke:none;stroke-width:0.1"
       id="path32"
       inkscape:connector-curvature="0" /><path
       d="m 184.252,37.9797 v 2.9328 h -7.727 v 3.6184 h 4.302 v 2.9117 h -4.302 v 2.5902 h 7.406 V 52.966 H 173.527 V 37.9797 h 10.725 v 0"
       style="fill:#0e467b;fill-opacity:1;fill-rule:nonzero;stroke:none;stroke-width:0.1"
       id="path34"
       inkscape:connector-curvature="0" /><path
       d="m 129.459,42.5395 c -0.833,-2.929 -2.987,-4.7954 -6.126,-4.7954 -4.089,0 -6.508,3.1684 -6.508,7.7286 0,4.5601 2.419,7.7285 6.508,7.7285 3.306,0 5.52,-2.0703 6.247,-5.2723 h -3.182 c -0.483,1.3887 -1.465,2.2969 -3.065,2.2969 -2.419,0 -3.425,-2.077 -3.425,-4.7531 0,-2.6758 1.006,-4.7524 3.425,-4.7524 1.409,0 2.338,0.7035 2.869,1.8192 h 3.257 v 0"
       style="fill:#0e467b;fill-opacity:1;fill-rule:nonzero;stroke:none;stroke-width:0.1"
       id="path36"
       inkscape:connector-curvature="0" /></g></svg>